<?xml version="1.0" encoding="UTF-8"?>
<svg id="Layer_2" data-name="Layer 2" xmlns="http://www.w3.org/2000/svg" viewBox="0 0 335.28 114.83">
  <defs>
    <style>
      .cls-1 {
        fill: #0984e3;
      }

      .cls-2 {
        fill: #23374d;
      }

      .cls-3 {
        fill: #2d3436;
      }
    </style>
  </defs>
  <g id="Layer_1-2" data-name="Layer 1">
    <g>
      <g>
        <path class="cls-3" d="M306.36,60.79c.99-.12,1.56-.75,2.11-1.82.09-.18.19-.35.3-.51,2.66-3.96,3.13-7.61.75-12.32-4.75-9.39-8.59-19.23-12.79-28.89-.23-.52-.36-1.09-.74-2.29,2.64,0,4.97-.19,7.24.11.73.1,1.49,1.42,1.9,2.33,3.59,8.07,7.1,16.18,10.87,24.81.61-1.24,1.09-2.12,1.47-3.04,3.04-7.35,6.06-14.71,9.1-22.06.82-1.98,7.07-3.42,8.49-1.87.36.39.27,1.48,0,2.09-6.23,14.42-12.46,28.83-18.79,43.21-1.81,4.1-4.29,7.66-9.33,8.62l-.5.09c-1.8.34-3.47-1.04-3.47-2.88v-3.35c0-.98.71-1.81,1.67-1.96l1.73-.27Z"/>
        <path class="cls-3" d="M122.19,6.68c0-.69,0-1.09,0-1.49.02-4.73,1.41-5.91,6.11-4.81.76.18,1.74,1.6,1.75,2.46.15,12.14.16,24.28.19,36.43,0,3.98-.15,7.97,0,11.94.08,2.15-.66,2.96-2.72,2.73-.39-.04-.8-.06-1.19-.02-2.8.33-4.79-.23-3.86-4.59-5.09,4.34-10.25,6.39-16.29,5.4-6.05-.99-10.76-4.1-14.11-9.14-5.01-7.52-3.83-18.69,2.52-25.42,7.38-7.83,15.63-8.36,27.6-1.48,0-4.08,0-7.9,0-12.02M119.35,26.05c-4.36-5.85-13.89-5.98-18.75-.86-5.2,5.47-4.96,13.91.65,18.88,4.57,4.04,12.21,4.07,16.72.07,5.17-4.6,5.84-11.72,1.39-18.08Z"/>
        <path class="cls-3" d="M68.84,14.52c2.61,1.24,4.98,2.43,7.5,3.7.53-1.67.29-3.81,3.32-3.77,5.05.08,5.04-.17,5.07,4.94.07,9.95.21,19.91.16,29.86,0,1.69,1.18,4.27-2.04,4.69-4.62.59-5.57.08-6.54-3.42-11.03,6.03-19.48,5.55-26.53-1.51-6.23-6.24-7.68-16.67-3.42-24.64,4.36-8.14,12.55-11.79,22.48-9.84M54.03,27.25c-.4.8-.87,1.57-1.18,2.4-1.76,4.66-1.19,9.07,1.91,12.94,2.81,3.5,6.66,5.04,11.12,4.41,5.86-.83,10.43-5.33,11.05-10.57.72-6.16-2.21-11.54-7.59-13.9-5.42-2.38-10.8-.83-15.3,4.72Z"/>
        <path class="cls-3" d="M187.38,22.21c2.73,4.52,4.25,9.35,3.6,14.69-.83,6.93-4.64,11.83-10.67,15.42-11.87,5.94-22.77.34-27.61-7.48-2.52-4.32-2.66-8.7-2.63-13.12.11-.63.22-1.26.47-2.29,3.25-9.87,10.21-15.46,18.92-15.68,7.43-.19,13.25,2.86,17.92,8.46,0,0,.01-.02,0-.01M158.26,30.57c-.1.49-.2.97-.29,1.46-1.18,6.67,2.98,13.27,9.21,14.64,7.2,1.58,13.87-2.45,15.58-9.41,1.63-6.6-1.89-13.05-8.29-15.19-6.66-2.23-13.01.95-16.22,8.5Z"/>
        <path class="cls-3" d="M144.94,41.31c0,3.48-.07,6.66.05,9.83.08,2-.54,3.04-2.68,2.83-.59-.06-1.2-.04-1.78.05-2.75.42-3.92-.43-3.88-3.5.15-10.82,0-21.65.07-32.47,0-1.14.57-3.19,1.08-3.26,2.19-.28,4.47-.06,6.68.23.25.03.44,1.6.44,2.45.03,7.84.02,15.69.02,23.83Z"/>
        <g>
          <path class="cls-3" d="M40.57,50.73c-1.53-1.96-3.16-3.85-4.87-5.93-3.35-4.02-6.58-7.88-10.05-12.04,1.57-.36,2.61-.58,3.64-.83,8.1-1.96,12.33-8.16,11.78-17.24-.48-7.76-5.68-13.59-13.58-14.08C19.25.11,10.97.39,2.71.36.77.35.21,1.58.22,3.32c.03,5.37-.04,10.74.04,16.11.05,2.98,1.38,4.18,4.21,4.15,2.67-.03,4.14-1.52,4.17-4.3.03-3.46,0-6.92,0-10.51,6.43,0,12.58-.31,18.68.11,3.83.26,5.72,3.39,5.59,7.54-.13,4.1-2.46,7.07-6.24,7.56-2.25.29-4.57.14-6.85.19-2.62.06-4.57,1.2-5.75,3.56-1.17,2.35-.16,4.21,1.34,5.98,4.62,5.47,9.58,10.7,13.73,16.51,2.8,3.92,6.24,3.97,10.13,3.66,2.25-.18,2.71-1.36,1.3-3.16Z"/>
          <path class="cls-3" d="M8.57,37.74c-.05-3.51-1.41-5.17-4.27-5.23-2.67-.05-4.13,1.53-4.22,4.98-.12,4.57.02,9.15-.08,13.73-.05,2.23.91,3.09,3.05,2.89.89-.08,1.79-.03,2.69-.02,1.99.02,2.89-.93,2.85-2.93-.05-2.59,0-5.17.02-8.06-.01-1.99-.02-3.68-.04-5.37Z"/>
        </g>
        <path class="cls-3" d="M136.75,8.28c-1.64-3.32-1.25-5.57,1.09-7.26,2.04-1.47,4.79-1.27,6.56.47,1.85,1.82,2.06,4.66.51,6.81-1.85,2.58-5.05,2.63-8.15-.03Z"/>
        <path class="cls-3" d="M293.25,32.94c-.05,5.37.17,10.76-.25,16.1-.3,3.9-.75,8.07-2.41,11.5-1.35,2.79-4.25,5.24-7.04,6.84-7.56,4.35-15.38,4.03-23-.22-.94-.52-1.83-1.22-2.57-2-1.15-1.21-2.62-2.51-1.2-4.36,1.39-1.81,3.28-2.65,5.51-1.63,1.53.7,2.9,1.75,4.42,2.46,8.33,3.83,19.15-.22,18.18-12.26-4.25,4.02-9.12,5.8-14.72,5.13-5.63-.67-10.12-3.36-13.44-7.95-5.74-7.92-4.78-19.96,1.89-26.99,5.14-5.42,16.48-8.58,25.99-.82.2-1.23.37-2.32.55-3.44.31-.14.56-.34.83-.37q6.84-.72,6.97,6.11c.05,2.79.09,5.57.15,8.88.05,1.35.09,2.18.13,3.02M284.21,40.21c.24-.54.51-1.08.71-1.64,1.77-5.15.16-10.89-3.99-14.27-4.07-3.32-9.61-3.71-14.2-1.01-4.4,2.59-6.85,8.07-5.97,13.3.87,5.13,4.59,9.08,9.59,10.18,5.54,1.23,9.9-.74,13.86-6.57Z"/>
        <g>
          <path class="cls-3" d="M219.26,26.17c2.7-3.04,5.97-4.78,10.38-4.63,1.84-1.99,3.43-3.95,4.9-6.21-.45-.49-.79-.68-1.37-.87-8.83-1.79-15.69,1.01-21.13,7.99-1.25,3.43-2.44,6.65-3.63,9.88,0,.64,0,1.28,0,2.4.63,2.94,1.25,5.39,1.88,7.85,1.91-1.36,3.82-2.71,5.79-4.28-.25-4.54.1-8.69,3.17-12.14Z"/>
          <path class="cls-3" d="M248.73,29.48c-2.01-7.56-7.8-13.45-14.03-14.03-1.63,2.14-3.22,4.1-4.81,6.05,6.81,1.01,11.41,5.78,11.77,12.21.33,5.9-3.9,11.6-9.71,13.07-6.66,1.68-12.11-1.28-15.69-8.34-2.14,1.43-4.05,2.79-5.93,4.35,4.08,9.7,14.95,14.33,25.17,10.9,10.1-3.39,15.93-14.05,13.23-24.21Z"/>
        </g>
        <g>
          <path class="cls-3" d="M203.4,48.17c.23-14.91.22-29.55.15-44.19,0-1.04-.23-2.9-.61-2.97-2.01-.35-4.14-.49-6.14-.15-.53.09-1.02,2.14-1.03,3.29-.07,14.64-.07,29.27-.05,43.91,0,1.18.21,2.35.33,3.53,2.36-1.05,4.72-2.1,7.34-3.42Z"/>
          <path class="cls-3" d="M203.37,48.45c-2.59,1.05-4.95,2.1-7.37,3.38-.01.61,0,1.3.07,1.31,2.17.19,4.37.51,6.51.28.47-.05.8-2.07,1.07-3.21.13-.55-.03-1.17-.28-1.76Z"/>
        </g>
      </g>
      <g>
        <path class="cls-1" d="M306.93,69.15v4.69c3.59,0,7.13.11,10.66-.04,2.52-.11,3.14,1.11,2.88,3.27-.24,1.97.8,4.66-2.92,4.5-3.55-.15-7.12-.03-10.69-.03,0,6.68-.18,12.92.08,19.15.12,3.07,2.94,5.37,6.01,5.68.89.09,1.79.04,2.69,0,4.85-.16,4.71-.16,4.87,4.64.08,2.41-.76,3.3-3.07,3.1-2.67-.24-5.34-.43-8.25-.66-.25-.02-.26,0-.39-.14-.5-.2-.86-.27-1.22-.34-.28-.18-.57-.36-1.03-.57-5.67-3.44-7.84-8.32-7.67-14.84.27-10.64-.04-21.3-.14-31.95-.05-4.93,1.24-6.22,6.05-5,.64.16,1.16.21,1.6.16"/>
        <path class="cls-1" d="M109.06,90.18c.15,7.69.6,6.78-6.68,6.8-8.15.02-16.3,0-24.78,0,.87,4.73,3.32,7.83,7.41,9.3,4.88,1.75,9.76,1.41,13.68-2.3,2.06-1.95,3.64-1.95,6.03-.77,2.6,1.28,2.26,2.58.76,4.31-5.04,5.82-11.46,8.09-18.99,7.05-2.32-.32-4.54-1.38-7.03-2.13-.47-.23-.72-.43-1.25-.81-5.04-3.65-7.85-8.27-8.54-14.13-.7-5.96.64-11.44,3.8-16.51,0,0-.04-.04.17-.11,1.06-1.02,1.91-1.97,2.76-2.92,0,0-.09-.15.16-.14,5.14-3.57,10.58-5.13,16.57-3.93,8.76,1.76,13.7,7.47,15.89,15.87,0,0-.02.29.03.43M80.37,90.28h20.78c-1.73-5.62-5.65-8.71-10.8-8.97-5.53-.27-9.84,2.28-11.79,6.84-.63,1.47-.6,2.29,1.81,2.13Z"/>
        <g>
          <path class="cls-1" d="M65.77,109.64c-4.74-5.55-9.48-11.11-14.62-17.14,4.87-.69,8.72-2.22,11.83-5.8.32-.41.46-.54.65-.61,1-2.44,2.01-4.87,3.07-7.73.1-.68.14-.94.19-1.21,0-6.15-1.96-11.33-7.45-14.65-1.33-.81-2.9-1.24-4.81-1.94-8.71-.13-16.97-.1-25.22-.23-2.66-.04-3.86.92-3.8,3.62.11,4.77.04,9.55.13,14.32.07,3.58,1.22,4.87,4.17,4.91,3.06.04,4.36-1.39,4.42-5,.05-3.05.01-6.1.01-9.45,5.84,0,11.28-.04,16.73.01,4.48.04,7.55,2.84,7.77,6.97.23,4.15-2.47,7.42-6.8,8.03-2.26.32-4.56.44-6.84.44-2.56,0-4.46.96-5.55,3.27-1.14,2.4-.18,4.37,1.41,6.25,5.59,6.59,11.13,13.23,16.69,19.85,2.13.1,4.27.31,6.4.27,2.85-.06,3.28-.99,1.77-3.89-.1-.23-.14-.31-.14-.31Z"/>
          <path class="cls-1" d="M29.96,92.2c-2.62.07-4.26,1.76-4.28,4.65-.03,4.66.05,9.33.05,13.99,0,1.82.55,3.43,2.63,3.04,2.13-.4,5.61,1.82,5.99-2.91,0-4.93.08-9.6,0-14.26-.06-3-1.72-4.58-4.38-4.51Z"/>
        </g>
        <g>
          <path class="cls-1" d="M125.12,97.5c3.18.05,6.37-.09,9.54.11,1.62.1,3.21.78,4.81,1.19,1.76-1.62,3.53-3.25,5.4-5.18-1.29-1.25-2.7-2.19-4.37-3.16-4.59-.14-8.93-.33-13.26-.34-2.23,0-4.44.14-5.67-2.19-1.28-2.4-.18-4.34,1.4-6.13,1.14-2.42-.76-3.29-2.29-4.17-.88-.51-2-.59-3.32-.94-4.68,3.85-4.88,8.78-3.27,13.88,1.45,4.61,5.32,6.84,11.03,6.93Z"/>
          <path class="cls-1" d="M144.93,93.8c-1.94,1.75-3.7,3.37-5.37,5.22,1.96,4.79.37,7.18-4.74,7.52-1.4.77-2.72,1.71-4.2,2.26-4.49,1.7-9.03,3.25-13.32,5.09,7.2.15,14.18.29,21.13-.08,4.42-.23,7.79-2.7,9.04-7.07,1.33-4.63,1.39-9.25-2.54-12.93Z"/>
          <path class="cls-1" d="M123.21,81.82c6.78-.07,13.33-.23,19.87-.2,3.23.01,2.97-2.12,3.08-4.24.13-2.3-.65-3.59-3.17-3.54-6.64.13-13.29.03-19.92.39-1.91.1-3.75,1.46-5.52,2.4,1.12.42,2.25.5,3.13,1.01,1.53.88,3.43,1.75,2.53,4.19Z"/>
          <path class="cls-1" d="M118.09,105.87c-1.02.07-2.03.13-3.4.26-.35.06-.59.13-.66.34-.22,1.39-.43,2.55-.49,3.73-.12,2.39.56,4.14,3.5,3.64,4.56-1.8,9.11-3.36,13.6-5.06,1.47-.56,2.8-1.5,3.98-2.37-5.65-.26-11.09-.4-16.52-.55Z"/>
        </g>
        <path class="cls-1" d="M207.27,98.57c-.02,4.18-.18,8.36-.01,12.54.09,2.33-.79,3.02-2.93,2.8-1.47-.15-2.96-.15-4.63-.23-.22-1.21-.41-2.32-.61-3.45-11.16,6.66-20.95,5.86-27.94-2.23-6.33-7.32-6.46-19.63-.29-27.07,6.99-8.42,16.23-9.23,28.43-2.33,0-4.77.01-9.41,0-14.04-.01-4.45.27-4.75,4.68-4.49.97.06,1.94.28,3.24.47,0,8.06,0,16,0,24.42.04,1.06.07,1.65.1,2.23-.04,3.32-.08,6.63-.11,10.34.03.61.06.82.09,1.04M199.37,93.17c-.25-1.16-.39-2.36-.78-3.47-1.61-4.67-6.13-8.11-10.94-8.39-5.32-.3-9.54,1.6-12.12,6.42-2.6,4.88-1.79,11.18,1.85,15.31,3.37,3.82,9.07,5.19,13.9,3.35,5.02-1.91,7.99-6.58,8.08-13.22Z"/>
        <path class="cls-1" d="M224.47,74.71c6.63-1.96,12.92-1.57,18.84,2.41,5.7,3.84,8.17,9.32,8.48,15.95.16,3.48-.35,3.93-3.82,3.93-9.06.01-18.12.03-27.18.04-.09,0-.18.09-.26.14.32,6.65,7.37,11.4,14.83,9.72,2.15-.49,4.56-1.45,6.04-2.98,2.24-2.31,4.09-2.25,6.4-.58.55.4,1.16.73,1.7,1.08-1.27,5.35-8.16,9.96-15.35,10.38-9.69.56-17.84-4.57-20.86-13.22-2.93-8.4-.59-19.83,8.37-25.28,1.16-.66,1.99-1.12,2.83-1.58M234.05,81.32c-7.55-.42-12.18,2.62-13.39,8.86h22.82c-.5-4.37-3.51-7.3-9.44-8.86Z"/>
        <g>
          <path class="cls-1" d="M153.72,86.51c-.31,8.63-.39,16.98-.29,25.33,0,.68,1.14,1.66,1.95,1.94.98.34,2.16.06,3.25.09,1.83.04,2.71-.72,2.68-2.66-.12-10.54-.17-21.08-.24-31.61-2.36,2.21-4.72,4.42-7.36,6.91Z"/>
          <path class="cls-1" d="M159.46,70.04c2.25-1.11,3.07-3.02,2.85-5.4-.33-3.51-3.1-4.95-7.69-4.09-.02-.02,0,.01-.1.19-.57.82-1.46,1.48-1.43,2.09.12,2.05.05,4.39,1.03,6.03.99,1.67,3.23,2.21,5.34,1.17Z"/>
          <path class="cls-1" d="M156.1,74.15c-.3,0-.69-.11-.87.04-.67.54-1.8,1.15-1.82,1.75-.08,3.44.11,6.89.4,10.31,2.55-2.23,4.91-4.44,7.32-6.92q.06-5.33-5.03-5.18Z"/>
        </g>
        <path class="cls-1" d="M292.99,92.14c-.14-3.09-.88-6.29-2.07-9.15-.75-1.81-2.82-3.07-4.27-4.37,4.24,5.61,4.87,12.09,5.3,18.55-.43-6.46-1.06-12.94-5.45-18.62-.46-.45-.73-.63-1.24-.8-1.73,1.12-2.23,2.54-1.94,4.06-.29-1.54.2-3,1.91-4.28-6.98-6.09-13.85-3.83-20.63.68-.43-4.16-.43-3.94-4.83-4.03-3.4-.07-3.23,1.86-3.22,4.21.06,10.05.02,20.1.02,30.16q0,5.07,4.96,5.41c.27-.05.53-.09,1.2-.16.82-.17,1.23-.32,1.63-.46,0,0,.02-.2.09-.53.06-7.17,0-14.01.07-20.85.05-4.63,2.32-7.93,6.6-9.67,5.67-2.3,10.63.14,13.8,6.63.69-.72.93-1.36.9-1.97.03.61-.2,1.27-.9,2.01,0,.04.04.1.04.1.36.93,1,1.86,1.02,2.8-.02-.94-.66-1.87-1.02-2.51.12,1.97.33,3.64.34,5.32.05,5.45-.04,10.91.11,16.36.03.92.88,2.51,1.51,2.6,1.77.23,3.63-.16,5.25-.55-.67-.35-1.16-.58-1.62-.53.46-.05.95.19,1.79.43.4.02.44-.1.48-.23-.27-1.01-.75-2.02-.77-3.04.02,1.02.5,2.03.91,2.88.14-6.92.34-13.69.05-20.44ZM281.13,78.1c-.06-.06-.18-.18-.18-.19.15-.16.3-.3.46-.45.03.34-.13.49-.28.64Z"/>
      </g>
      <path class="cls-2" d="M281.5,77.56c-.06.24-.22.39-.37.54-.06-.06-.18-.18-.18-.19.15-.16.3-.3.55-.35Z"/>
    </g>
  </g>
</svg>