<?xml version="1.0" encoding="UTF-8"?>
<svg id="Layer_2" data-name="Layer 2" xmlns="http://www.w3.org/2000/svg" xmlns:xlink="http://www.w3.org/1999/xlink" viewBox="0 0 1912 900.43">
  <defs>
    <style>
      .cls-1 {
        fill: #0984e3;
      }

      .cls-2 {
        fill: #4e636d;
      }

      .cls-3 {
        fill: none;
      }

      .cls-4 {
        fill: url(#radial-gradient);
      }

      .cls-5 {
        fill: #23374d;
      }

      .cls-6 {
        fill: #2c3f49;
      }

      .cls-7 {
        opacity: .1;
      }

      .cls-8 {
        clip-path: url(#clippath);
      }

      .cls-9 {
        fill: #2d3436;
      }
    </style>
    <radialGradient id="radial-gradient" cx="956" cy="479.26" fx="1570.11" fy="135.33" r="703.86" gradientUnits="userSpaceOnUse">
      <stop offset="0" stop-color="#fff"/>
      <stop offset="1" stop-color="#e8f0fd"/>
    </radialGradient>
    <clipPath id="clippath">
      <rect class="cls-3" y="201.93" width="1912" height="554.67"/>
    </clipPath>
  </defs>
  <g id="Layer_1-2" data-name="Layer 1">
    <g>
      <rect class="cls-4" y="201.93" width="1912" height="554.67"/>
      <g class="cls-8">
        <g class="cls-7">
          <path class="cls-2" d="M771.62,273.85c0,74.54-30.79,142.06-79.94,190.67-49.15,49.15-117.21,79.94-192.83,79.94h-5.4c-29.71,0-53.47-23.77-53.47-53.47v-138.28c0-16.74,13.5-30.25,30.25-30.25h147.46c26.47,0,46.45-29.17,29.17-57.26-5.4-9.18-15.12-14.04-25.93-14.04h-151.24c-16.74,0-30.25-13.5-30.25-30.25v-34.03c0-10.8-5.4-20.53-14.58-25.93h0c-27.55-16.2-56.18,3.24-56.18,29.71v92.37c0,16.74-13.5,30.25-30.25,30.25h-111.81V50.77c0-28.09,22.69-50.77,50.77-50.77h217.14c150.7,0,278.18,123.69,277.1,274.39v-.54Z"/>
          <path class="cls-6" d="M723.55,900.43h-459.67c-22.69,0-37.81-18.36-37.81-37.81v-478.57h111.81c16.74,0,30.25,13.5,30.25,30.25v194.99c0,10.26,5.4,20.53,14.04,25.93,15.12,9.18,31.33,7.56,42.13,0l1.08-1.08,40.51-38.89c15.12-15.66,39.43-15.66,54.55,0l229.56,241.45c22.69,23.77,5.94,63.74-27.01,63.74h.54Z"/>
        </g>
      </g>
      <g>
        <g>
          <path class="cls-9" d="M1094.69,482.68c1-.1,1.6-.8,2.1-1.8,0-.2.2-.4.3-.5,2.7-4,3.1-7.6.7-12.3-4.7-9.4-8.6-19.2-12.8-28.9-.2-.5-.4-1.1-.7-2.3,2.6,0,5-.2,7.2.1.7,0,1.5,1.4,1.9,2.3,3.6,8.1,7.1,16.2,10.9,24.8.6-1.2,1.1-2.1,1.5-3,3-7.3,6.1-14.7,9.1-22.1.8-2,7.1-3.4,8.5-1.9.4.4.3,1.5,0,2.1-6.2,14.4-12.5,28.8-18.8,43.2-1.8,4.1-4.3,7.7-9.3,8.6h-.5c-1.8.4-3.5-.9-3.5-2.8v-3.4c0-1,.7-1.8,1.7-2l1.7-.3v.2Z"/>
          <path class="cls-9" d="M910.49,428.58v-1.5c0-4.7,1.4-5.9,6.1-4.8.8.2,1.7,1.6,1.8,2.5.2,12.1.2,24.3.2,36.4,0,4-.1,8,0,11.9,0,2.1-.7,3-2.7,2.7h-1.2c-2.8.3-4.8-.2-3.9-4.6-5.1,4.3-10.2,6.4-16.3,5.4-6-1-10.8-4.1-14.1-9.1-5-7.5-3.8-18.7,2.5-25.4,7.4-7.8,15.6-8.4,27.6-1.5v-12M907.69,447.98c-4.4-5.8-13.9-6-18.8-.9-5.2,5.5-5,13.9.6,18.9,4.6,4,12.2,4.1,16.7,0,5.2-4.6,5.8-11.7,1.4-18.1l.1.1Z"/>
          <path class="cls-9" d="M857.09,436.48c2.6,1.2,5,2.4,7.5,3.7.5-1.7.3-3.8,3.3-3.8,5,0,5-.2,5.1,4.9,0,10,.2,19.9.2,29.9,0,1.7,1.2,4.3-2,4.7-4.6.6-5.6,0-6.5-3.4-11,6-19.5,5.5-26.5-1.5-6.2-6.2-7.7-16.7-3.4-24.6,4.4-8.1,12.6-11.8,22.5-9.8M842.29,449.18c-.4.8-.9,1.6-1.2,2.4-1.8,4.7-1.2,9.1,1.9,12.9,2.8,3.5,6.7,5,11.1,4.4,5.9-.8,10.4-5.3,11-10.6.7-6.2-2.2-11.5-7.6-13.9-5.4-2.4-10.8-.8-15.3,4.7l.1.1Z"/>
          <path class="cls-9" d="M975.69,444.18c2.7,4.5,4.2,9.4,3.6,14.7-.8,6.9-4.6,11.8-10.7,15.4-11.9,5.9-22.8.3-27.6-7.5-2.5-4.3-2.7-8.7-2.6-13.1.1-.6.2-1.3.5-2.3,3.3-9.9,10.2-15.5,18.9-15.7,7.4-.2,13.3,2.9,17.9,8.5h0M946.59,452.48c0,.5-.2,1-.3,1.5-1.2,6.7,3,13.3,9.2,14.6,7.2,1.6,13.9-2.4,15.6-9.4,1.6-6.6-1.9-13-8.3-15.2-6.7-2.2-13,.9-16.2,8.5h0Z"/>
          <path class="cls-9" d="M933.29,463.28v9.8c0,2-.5,3-2.7,2.8h-1.8c-2.7.4-3.9-.4-3.9-3.5.1-10.8,0-21.6,0-32.5,0-1.1.6-3.2,1.1-3.3,2.2-.3,4.5,0,6.7.2.3,0,.4,1.6.4,2.5v23.8l.2.2Z"/>
          <g>
            <path class="cls-9" d="M828.89,472.68c-1.5-2-3.2-3.8-4.9-5.9-3.4-4-6.6-7.9-10.1-12,1.6-.4,2.6-.6,3.6-.8,8.1-2,12.3-8.2,11.8-17.2-.5-7.8-5.7-13.6-13.6-14.1-8.2-.5-16.5-.2-24.8-.3-1.9,0-2.5,1.2-2.5,3v16.1c0,3,1.4,4.2,4.2,4.2s4.1-1.5,4.2-4.3v-10.5c6.4,0,12.6-.3,18.7.1,3.8.3,5.7,3.4,5.6,7.5-.1,4.1-2.5,7.1-6.2,7.6-2.3.3-4.6.1-6.9.2-2.6,0-4.6,1.2-5.8,3.6-1.2,2.3-.2,4.2,1.3,6,4.6,5.5,9.6,10.7,13.7,16.5,2.8,3.9,6.2,4,10.1,3.7,2.2-.2,2.7-1.4,1.3-3.2l.3-.2Z"/>
            <path class="cls-9" d="M796.89,459.68c0-3.5-1.4-5.2-4.3-5.2-2.7,0-4.1,1.5-4.2,5-.1,4.6,0,9.2,0,13.7,0,2.2.9,3.1,3.1,2.9h2.7c2,0,2.9-.9,2.8-2.9v-13.5h-.1Z"/>
          </g>
          <path class="cls-9" d="M925.09,430.18c-1.6-3.3-1.3-5.6,1.1-7.3,2-1.5,4.8-1.3,6.6.5,1.8,1.8,2.1,4.7.5,6.8-1.9,2.6-5.1,2.6-8.2,0Z"/>
          <path class="cls-9" d="M1081.59,454.88c0,5.4.2,10.8-.2,16.1-.3,3.9-.8,8.1-2.4,11.5-1.3,2.8-4.3,5.2-7,6.8-7.6,4.3-15.4,4-23-.2-.9-.5-1.8-1.2-2.6-2-1.2-1.2-2.6-2.5-1.2-4.4,1.4-1.8,3.3-2.6,5.5-1.6,1.5.7,2.9,1.8,4.4,2.5,8.3,3.8,19.1-.2,18.2-12.3-4.3,4-9.1,5.8-14.7,5.1-5.6-.7-10.1-3.4-13.4-8-5.7-7.9-4.8-20,1.9-27,5.1-5.4,16.5-8.6,26-.8.2-1.2.4-2.3.6-3.4.3-.1.6-.3.8-.4,4.53-.47,6.87,1.57,7,6.1,0,2.8,0,5.6.1,8.9,0,1.4,0,2.2.1,3M1072.49,462.18c.2-.5.5-1.1.7-1.6,1.8-5.1.2-10.9-4-14.3-4.1-3.3-9.6-3.7-14.2-1-4.4,2.6-6.9,8.1-6,13.3.9,5.1,4.6,9.1,9.6,10.2,5.5,1.2,9.9-.7,13.9-6.6Z"/>
          <g>
            <path class="cls-9" d="M1007.59,448.08c2.7-3,6-4.8,10.4-4.6,1.8-2,3.4-3.9,4.9-6.2-.4-.5-.8-.7-1.4-.9-8.8-1.8-15.7,1-21.1,8-1.3,3.4-2.4,6.7-3.6,9.9v2.4c.6,2.9,1.3,5.4,1.9,7.9,1.9-1.4,3.8-2.7,5.8-4.3-.2-4.5.1-8.7,3.2-12.1l-.1-.1Z"/>
            <path class="cls-9" d="M1036.99,451.38c-2-7.6-7.8-13.4-14-14-1.6,2.1-3.2,4.1-4.8,6.1,6.8,1,11.4,5.8,11.8,12.2.3,5.9-3.9,11.6-9.7,13.1-6.7,1.7-12.1-1.3-15.7-8.3-2.1,1.4-4,2.8-5.9,4.3,4.1,9.7,14.9,14.3,25.2,10.9,10.1-3.4,15.9-14.1,13.2-24.2l-.1-.1Z"/>
          </g>
          <g>
            <path class="cls-9" d="M991.69,470.08c.2-14.9.2-29.5.2-44.2,0-1-.2-2.9-.6-3-2-.3-4.1-.5-6.1-.2-.5,0-1,2.1-1,3.3v43.9c0,1.2.2,2.4.3,3.5,2.4-1,4.7-2.1,7.3-3.4l-.1.1Z"/>
            <path class="cls-9" d="M991.69,470.38c-2.6,1-4.9,2.1-7.4,3.4v1.3c2.2.2,4.4.5,6.5.3.5,0,.8-2.1,1.1-3.2.1-.6,0-1.2-.3-1.8h.1Z"/>
          </g>
        </g>
        <g>
          <path class="cls-1" d="M1095.19,491.08v4.7c3.6,0,7.1.1,10.7,0,2.5-.1,3.1,1.1,2.9,3.3-.2,2,.8,4.7-2.9,4.5-3.6-.2-7.1,0-10.7,0,0,6.7-.2,12.9,0,19.2.1,3.1,2.9,5.4,6,5.7h2.7c4.8-.2,4.7-.2,4.9,4.6,0,2.4-.8,3.3-3.1,3.1-2.7-.2-5.3-.4-8.3-.7-.2,0-.3,0-.4-.1-.5-.2-.9-.3-1.2-.3-.3-.2-.6-.4-1-.6-5.7-3.4-7.8-8.3-7.7-14.8.3-10.6,0-21.3-.1-31.9,0-4.9,1.2-6.2,6-5,.6.2,1.2.2,1.6.2"/>
          <path class="cls-1" d="M897.39,512.08c.2,7.7.6,6.8-6.7,6.8h-24.8c.9,4.7,3.3,7.8,7.4,9.3,4.9,1.8,9.8,1.4,13.7-2.3,2.1-1.9,3.6-1.9,6-.8,2.6,1.3,2.3,2.6.8,4.3-5,5.8-11.5,8.1-19,7-2.3-.3-4.5-1.4-7-2.1-.5-.2-.7-.4-1.3-.8-5-3.7-7.9-8.3-8.5-14.1-.7-6,.6-11.4,3.8-16.5l.2-.1c1.1-1,1.9-2,2.8-2.9,0,0,0-.1.2-.1,5.1-3.6,10.6-5.1,16.6-3.9,8.8,1.8,13.7,7.5,15.9,15.9v.4M868.69,512.18h20.8c-1.7-5.6-5.6-8.7-10.8-9-5.5-.3-9.8,2.3-11.8,6.8-.6,1.5-.6,2.3,1.8,2.1v.1Z"/>
          <g>
            <path class="cls-1" d="M854.09,531.58c-4.7-5.6-9.5-11.1-14.6-17.1,4.9-.7,8.7-2.2,11.8-5.8.3-.4.5-.5.6-.6,1-2.4,2-4.9,3.1-7.7,0-.7.1-.9.2-1.2,0-6.1-2-11.3-7.4-14.6-1.3-.8-2.9-1.2-4.8-1.9-8.7-.1-17,0-25.2-.2-2.7,0-3.9.9-3.8,3.6.1,4.8,0,9.5.1,14.3,0,3.6,1.2,4.9,4.2,4.9s4.4-1.4,4.4-5v-9.5h16.7c4.5,0,7.5,2.8,7.8,7,.2,4.1-2.5,7.4-6.8,8-2.3.3-4.6.4-6.8.4-2.6,0-4.5,1-5.5,3.3-1.1,2.4-.2,4.4,1.4,6.3,5.6,6.6,11.1,13.2,16.7,19.9,2.1,0,4.3.3,6.4.3,2.8,0,3.3-1,1.8-3.9-.1-.2-.1-.3-.1-.3l-.2-.2Z"/>
            <path class="cls-1" d="M818.29,514.18c-2.6,0-4.3,1.8-4.3,4.7v14c0,1.8.5,3.4,2.6,3s5.6,1.8,6-2.9v-14.3c0-3-1.7-4.6-4.4-4.5h.1Z"/>
          </g>
          <g>
            <path class="cls-1" d="M913.39,519.48c3.2,0,6.4,0,9.5.1,1.6.1,3.2.8,4.8,1.2,1.8-1.6,3.5-3.2,5.4-5.2-1.3-1.3-2.7-2.2-4.4-3.2-4.6-.1-8.9-.3-13.3-.3-2.2,0-4.4.1-5.7-2.2-1.3-2.4-.2-4.3,1.4-6.1,1.1-2.4-.8-3.3-2.3-4.2-.9-.5-2-.6-3.3-.9-4.7,3.8-4.9,8.8-3.3,13.9,1.5,4.6,5.3,6.8,11,6.9h.2Z"/>
            <path class="cls-1" d="M933.19,515.78c-1.9,1.8-3.7,3.4-5.4,5.2,2,4.8.4,7.2-4.7,7.5-1.4.8-2.7,1.7-4.2,2.3-4.5,1.7-9,3.3-13.3,5.1,7.2.1,14.2.3,21.1,0,4.4-.2,7.8-2.7,9-7.1,1.3-4.6,1.4-9.2-2.5-12.9v-.1Z"/>
            <path class="cls-1" d="M911.49,503.78c6.8,0,13.3-.2,19.9-.2,3.2,0,3-2.1,3.1-4.2.1-2.3-.7-3.6-3.2-3.5-6.6.1-13.3,0-19.9.4-1.9.1-3.8,1.5-5.5,2.4,1.1.4,2.2.5,3.1,1,1.5.9,3.4,1.8,2.5,4.2v-.1Z"/>
            <path class="cls-1" d="M906.39,527.78c-1,0-2,.1-3.4.3-.4,0-.6.1-.7.3-.2,1.4-.4,2.6-.5,3.7-.1,2.4.6,4.1,3.5,3.6,4.6-1.8,9.1-3.4,13.6-5.1,1.5-.6,2.8-1.5,4-2.4-5.7-.3-11.1-.4-16.5-.6v.2Z"/>
          </g>
          <path class="cls-1" d="M995.59,520.48c0,4.2-.2,8.4,0,12.5,0,2.3-.8,3-2.9,2.8-1.5-.2-3-.2-4.6-.2-.2-1.2-.4-2.3-.6-3.5-11.2,6.7-21,5.9-27.9-2.2-6.3-7.3-6.5-19.6-.3-27.1,7-8.4,16.2-9.2,28.4-2.3v-14c0-4.4.3-4.7,4.7-4.5,1,0,1.9.3,3.2.5v26.6c0,3.3,0,6.6-.1,10.3v1M987.69,515.08c-.3-1.2-.4-2.4-.8-3.5-1.6-4.7-6.1-8.1-10.9-8.4-5.3-.3-9.5,1.6-12.1,6.4-2.6,4.9-1.8,11.2,1.8,15.3,3.4,3.8,9.1,5.2,13.9,3.4,5-1.9,8-6.6,8.1-13.2Z"/>
          <path class="cls-1" d="M1012.79,496.68c6.6-2,12.9-1.6,18.8,2.4,5.7,3.8,8.2,9.3,8.5,15.9.2,3.5-.3,3.9-3.8,3.9h-27.2s-.2,0-.3.1c.3,6.6,7.4,11.4,14.8,9.7,2.2-.5,4.6-1.5,6-3,2.2-2.3,4.1-2.3,6.4-.6.6.4,1.2.7,1.7,1.1-1.3,5.3-8.2,10-15.3,10.4-9.7.6-17.8-4.6-20.9-13.2-2.9-8.4-.6-19.8,8.4-25.3,1.2-.7,2-1.1,2.8-1.6M1022.39,503.28c-7.5-.4-12.2,2.6-13.4,8.9h22.8c-.5-4.4-3.5-7.3-9.4-8.9Z"/>
          <g>
            <path class="cls-1" d="M941.99,508.48c-.3,8.6-.4,17-.3,25.3,0,.7,1.1,1.7,1.9,1.9,1,.3,2.2,0,3.3,0,1.8,0,2.7-.7,2.7-2.7-.1-10.5-.2-21.1-.2-31.6-2.4,2.2-4.7,4.4-7.4,6.9v.2Z"/>
            <path class="cls-1" d="M947.79,491.98c2.3-1.1,3.1-3,2.9-5.4-.3-3.5-3.1-5-7.7-4.1v.2c-.6.8-1.5,1.5-1.4,2.1.1,2,0,4.4,1,6,1,1.7,3.2,2.2,5.3,1.2h-.1Z"/>
            <path class="cls-1" d="M944.39,496.08c-.3,0-.7-.1-.9,0-.7.5-1.8,1.1-1.8,1.8,0,3.4.1,6.9.4,10.3,2.6-2.2,4.9-4.4,7.3-6.9,0-3.53-1.67-5.27-5-5.2h0Z"/>
          </g>
          <path class="cls-1" d="M1081.29,514.08c-.1-3.1-.9-6.3-2.1-9.1-.8-1.8-2.8-3.1-4.3-4.4,4.2,5.6,4.9,12.1,5.3,18.6-.4-6.5-1.1-12.9-5.5-18.6-.5-.5-.7-.6-1.2-.8-1.7,1.1-2.2,2.5-1.9,4.1-.3-1.5.2-3,1.9-4.3-7-6.1-13.9-3.8-20.6.7-.4-4.2-.4-3.9-4.8-4-3.4,0-3.2,1.9-3.2,4.2v30.2c0,3.4,1.67,5.2,5,5.4.3,0,.5,0,1.2-.2.8-.2,1.2-.3,1.6-.5v-21.3c0-4.6,2.3-7.9,6.6-9.7,5.7-2.3,10.6.1,13.8,6.6.7-.7.9-1.4.9-2,0,.6-.2,1.3-.9,2v.1c.4.9,1,1.9,1,2.8,0-.9-.7-1.9-1-2.5.1,2,.3,3.6.3,5.3,0,5.5,0,10.9.1,16.4,0,.9.9,2.5,1.5,2.6,1.8.2,3.6-.2,5.2-.6-.7-.3-1.2-.6-1.6-.5.5,0,.9.2,1.8.4.4,0,.4-.1.5-.2-.3-1-.8-2-.8-3,0,1,.5,2,.9,2.9.1-6.9.3-13.7,0-20.4l.3-.2ZM1069.39,500.08l-.2-.2c.1-.2.3-.3.5-.5,0,.3-.1.5-.3.6v.1Z"/>
        </g>
        <path class="cls-5" d="M1069.79,499.48c0,.2-.2.4-.4.5l-.2-.2c.1-.2.3-.3.5-.4l.1.1Z"/>
      </g>
    </g>
  </g>
</svg>