<?xml version="1.0" encoding="UTF-8"?>
<svg id="Layer_2" data-name="Layer 2" xmlns="http://www.w3.org/2000/svg" viewBox="0 0 165.3 165.3">
  <defs>
    <style>
      .cls-1 {
        fill: #0984e3;
      }

      .cls-2 {
        fill: #f1f7fd;
      }

      .cls-3 {
        fill: #2d3436;
      }
    </style>
  </defs>
  <g id="Layer_1-2" data-name="Layer 1">
    <g>
      <rect class="cls-2" width="165.3" height="165.3"/>
      <path class="cls-1" d="M65.4,46.8h22.1c7.8.2,13.6,4.7,15.3,11.9,1.7,7.3-1.1,14.6-7.1,17.8-2.2,1.2-4.8,1.7-7.4,2.6,4.7,5.7,9.5,11.4,14.2,17.2h0c1.1,1.4.2,3.5-1.5,3.9s-.2,0-.3,0c-4.6.8-7.6-1.3-10.4-5.8-4.6-4.1-8.3-8.9-11.8-13.9-2.1-2-3.1-4.6-1.6-6.7,1.1-1.5,3.2-2.6,5-3.1,2-.5,4.2,0,6.2-.2,4.3-.4,7.1-3.7,7.1-8.1s-2.7-7.2-7-7.4c-5.6-.2-11.1,0-17.1,0v10.2c0,3.3-2,5-5.2,4.4-2.3-.4-3.2-1.5-3.2-4.5v-12.8c0-3.1-.2-5.4,3-5.7l-.3.2Z"/>
      <rect class="cls-1" x="71.3" y="109.6" width="23.7" height="8.7" rx="4.3" ry="4.3"/>
      <path class="cls-3" d="M71,77.6c0-3.5-1.4-5.2-4.3-5.3-2.7,0-4.3,1.5-4.3,5v13.8c0,2.2.9,2.9,3,2.9h2.7c2,0,2.9-1.4,2.9-3v-13.5.1Z"/>
    </g>
  </g>
</svg>